<svg version="1.1" id="Layer_1" xmlns="http://www.w3.org/2000/svg" xmlns:xlink="http://www.w3.org/1999/xlink" x="0px" y="0px"
	 width="100%" viewBox="0 0 64 64" enable-background="new 0 0 64 64" xml:space="preserve">
<path fill="#000000" opacity="1.000000" stroke="none" 
	d="
M1.000000,30.000000 
	C1.000000,20.405594 1.000000,10.811189 1.000000,1.000000 
	C10.686486,1.000000 20.374586,1.000000 30.627056,1.461370 
	C31.146761,19.034683 31.060408,36.146832 31.143433,53.258156 
	C31.149506,54.509872 32.381340,55.755646 33.021545,57.425167 
	C32.666531,60.230770 32.333263,62.615383 32.000000,65.000000 
	C21.742615,65.000000 11.485230,65.000000 1.000000,65.000000 
	C1.000000,55.647003 1.000000,46.292160 1.383948,36.434994 
	C4.370030,36.497566 8.111694,38.420830 9.360853,37.372921 
	C13.123273,34.216644 17.135326,35.196869 21.130266,35.010662 
	C23.660767,34.892708 26.201235,34.988632 28.737230,34.988632 
	C28.896063,34.258926 29.054893,33.529217 29.213724,32.799511 
	C27.587458,32.203457 25.993961,31.231802 24.328369,31.086483 
	C20.386013,30.742525 15.354383,32.263130 12.684250,30.349428 
	C8.244729,27.167599 4.932585,28.259628 1.000000,30.000000 
M21.151785,23.941450 
	C18.083622,22.571695 17.241676,20.173965 16.673864,16.909477 
	C16.349102,15.042343 13.296445,12.392579 11.477377,12.396842 
	C9.666638,12.401085 6.586398,15.157645 6.409475,16.940271 
	C6.227310,18.775723 8.587562,21.222717 10.372216,22.791336 
	C12.095674,24.306168 14.668523,24.810354 16.577290,26.167671 
	C20.794754,29.166687 26.676434,28.649200 29.102240,24.015665 
	C26.450197,24.015665 24.223562,24.015665 21.151785,23.941450 
M16.544052,50.763710 
	C16.894648,45.575321 18.984949,42.421669 24.878748,42.824596 
	C26.262138,42.919170 27.752377,41.450821 29.193460,40.701508 
	C28.954475,40.164608 28.715492,39.627708 28.476507,39.090809 
	C24.027502,39.573685 19.108932,37.212704 15.342023,42.018158 
	C14.778582,42.736942 13.111848,42.480839 12.216250,43.071247 
	C10.082238,44.478069 7.391615,45.759216 6.347156,47.813705 
	C5.777759,48.933731 7.786834,52.793678 9.205093,53.151699 
	C11.206225,53.656860 13.737378,52.062408 16.544052,50.763710 
M28.490082,7.066659 
	C26.058956,4.451716 23.160435,3.847464 21.004160,6.827222 
	C19.857441,8.411876 19.214746,11.929326 20.161007,13.078091 
	C21.449957,14.642884 24.930370,15.943118 26.652557,15.268165 
	C29.622076,14.104364 31.369051,11.160941 28.490082,7.066659 
M29.828106,57.045185 
	C29.782991,55.908432 30.193966,54.234928 29.606844,53.736042 
	C27.877468,52.266556 25.722626,50.310711 23.791626,50.371311 
	C22.185658,50.421711 19.672632,52.885548 19.377764,54.593872 
	C19.082588,56.303967 20.559664,59.061424 22.110971,60.191444 
	C25.158522,62.411358 27.578552,60.257141 29.828106,57.045185 
z"/>
<path fill="#FDFDFD" opacity="1.000000" stroke="none" 
	d="
M32.460636,65.000000 
	C32.333263,62.615383 32.666531,60.230770 33.380566,57.270359 
	C34.042877,54.929237 34.557190,53.165367 34.568264,51.398342 
	C34.641327,39.743664 34.606125,28.088308 34.606190,16.433172 
	C34.606209,12.657245 34.606190,8.881317 34.606190,4.794221 
	C41.824738,5.099751 47.107754,7.907020 51.177177,12.869546 
	C57.326385,20.368296 57.216747,29.900063 59.173260,38.747555 
	C59.269169,39.181263 58.983990,39.702179 58.865635,40.179852 
	C58.019363,43.595348 56.789604,46.971443 56.437141,50.436890 
	C56.129852,53.458153 54.948982,54.346107 52.099689,54.502888 
	C44.454369,54.923576 42.386654,57.736309 44.000000,65.000000 
	C40.307091,65.000000 36.614182,65.000000 32.460636,65.000000 
z"/>
<path fill="#525860" opacity="1.000000" stroke="none" 
	d="
M44.375000,65.000000 
	C42.386654,57.736309 44.454369,54.923576 52.099689,54.502888 
	C54.948982,54.346107 56.129852,53.458153 56.437141,50.436890 
	C56.789604,46.971443 58.019363,43.595348 58.865635,40.179852 
	C58.983990,39.702179 59.269169,39.181263 59.173260,38.747555 
	C57.216747,29.900063 57.326385,20.368296 51.177177,12.869546 
	C47.107754,7.907020 41.824738,5.099751 34.606190,4.794221 
	C34.606190,8.881317 34.606209,12.657245 34.606190,16.433172 
	C34.606125,28.088308 34.641327,39.743664 34.568264,51.398342 
	C34.557190,53.165367 34.042877,54.929237 33.402313,56.849373 
	C32.381340,55.755646 31.149506,54.509872 31.143433,53.258156 
	C31.060408,36.146832 31.146761,19.034683 31.095715,1.461370 
	C34.361286,1.000000 37.722576,1.000000 41.461861,1.369753 
	C47.112709,4.678872 52.282795,7.551620 55.640392,13.042994 
	C60.629181,21.202206 61.041588,30.477863 62.899158,39.413891 
	C63.053749,40.157574 62.717178,41.033314 62.502274,41.818546 
	C61.672405,44.850826 60.539940,47.826477 60.007843,50.907444 
	C59.340164,54.773476 58.524033,57.958225 53.568676,57.992886 
	C47.321415,58.036583 47.014717,58.524162 47.000000,65.000000 
	C46.250000,65.000000 45.500000,65.000000 44.375000,65.000000 
z"/>
<path fill="#000000" opacity="1.000000" stroke="none" 
	d="
M47.469711,65.000000 
	C47.014717,58.524162 47.321415,58.036583 53.568676,57.992886 
	C58.524033,57.958225 59.340164,54.773476 60.007843,50.907444 
	C60.539940,47.826477 61.672405,44.850826 62.502274,41.818546 
	C62.717178,41.033314 63.053749,40.157574 62.899158,39.413891 
	C61.041588,30.477863 60.629181,21.202206 55.640392,13.042994 
	C52.282795,7.551620 47.112709,4.678872 41.919930,1.369753 
	C49.634426,1.000000 57.268856,1.000000 64.951645,1.000000 
	C64.951645,22.211294 64.951645,43.422718 64.951645,65.000000 
	C59.318371,65.000000 53.628895,65.000000 47.469711,65.000000 
z"/>
<path fill="#434547" opacity="1.000000" stroke="none" 
	d="
M1.000000,30.428463 
	C4.932585,28.259628 8.244729,27.167599 12.684250,30.349428 
	C15.354383,32.263130 20.386013,30.742525 24.328369,31.086483 
	C25.993961,31.231802 27.587458,32.203457 29.213724,32.799511 
	C29.054893,33.529217 28.896063,34.258926 28.737230,34.988632 
	C26.201235,34.988632 23.660767,34.892708 21.130266,35.010662 
	C17.135326,35.196869 13.123273,34.216644 9.360853,37.372921 
	C8.111694,38.420830 4.370030,36.497566 1.383948,35.966335 
	C1.000000,34.285641 1.000000,32.571281 1.000000,30.428463 
z"/>
<path fill="#484A4C" opacity="1.000000" stroke="none" 
	d="
M21.574356,23.978558 
	C24.223562,24.015665 26.450197,24.015665 29.102240,24.015665 
	C26.676434,28.649200 20.794754,29.166687 16.577290,26.167671 
	C14.668523,24.810354 12.095674,24.306168 10.372216,22.791336 
	C8.587562,21.222717 6.227310,18.775723 6.409475,16.940271 
	C6.586398,15.157645 9.666638,12.401085 11.477377,12.396842 
	C13.296445,12.392579 16.349102,15.042343 16.673864,16.909477 
	C17.241676,20.173965 18.083622,22.571695 21.574356,23.978558 
z"/>
<path fill="#47494B" opacity="1.000000" stroke="none" 
	d="
M16.292994,51.064651 
	C13.737378,52.062408 11.206225,53.656860 9.205093,53.151699 
	C7.786834,52.793678 5.777759,48.933731 6.347156,47.813705 
	C7.391615,45.759216 10.082238,44.478069 12.216250,43.071247 
	C13.111848,42.480839 14.778582,42.736942 15.342023,42.018158 
	C19.108932,37.212704 24.027502,39.573685 28.476507,39.090809 
	C28.715492,39.627708 28.954475,40.164608 29.193460,40.701508 
	C27.752377,41.450821 26.262138,42.919170 24.878748,42.824596 
	C18.984949,42.421669 16.894648,45.575321 16.292994,51.064651 
z"/>
<path fill="#4D4E50" opacity="1.000000" stroke="none" 
	d="
M28.755081,7.353336 
	C31.369051,11.160941 29.622076,14.104364 26.652557,15.268165 
	C24.930370,15.943118 21.449957,14.642884 20.161007,13.078091 
	C19.214746,11.929326 19.857441,8.411876 21.004160,6.827222 
	C23.160435,3.847464 26.058956,4.451716 28.755081,7.353336 
z"/>
<path fill="#4D4E50" opacity="1.000000" stroke="none" 
	d="
M29.675949,57.404308 
	C27.578552,60.257141 25.158522,62.411358 22.110971,60.191444 
	C20.559664,59.061424 19.082588,56.303967 19.377764,54.593872 
	C19.672632,52.885548 22.185658,50.421711 23.791626,50.371311 
	C25.722626,50.310711 27.877468,52.266556 29.606844,53.736042 
	C30.193966,54.234928 29.782991,55.908432 29.675949,57.404308 
z"/>
</svg>