<?xml version="1.0" encoding="UTF-8"?>
<svg version="1.1" xmlns="http://www.w3.org/2000/svg" width="225" height="225">
<path d="M0 0 C74.25 0 148.5 0 225 0 C225 74.25 225 148.5 225 225 C150.75 225 76.5 225 0 225 C0 150.75 0 76.5 0 0 Z " fill="#023E5C" transform="translate(0,0)"/>
<path d="M0 0 C74.25 0 148.5 0 225 0 C225 74.25 225 148.5 225 225 C150.75 225 76.5 225 0 225 C0 150.75 0 76.5 0 0 Z M78.625 12.625 C77.56236938 13.01196045 77.56236938 13.01196045 76.47827148 13.40673828 C64.78299204 17.82029693 54.40973233 23.71499998 45 32 C44.19304688 32.66386719 43.38609375 33.32773437 42.5546875 34.01171875 C28.37268913 46.03751987 18.89481229 61.38908587 12.625 78.75 C12.38612061 79.41040283 12.14724121 80.07080566 11.90112305 80.7512207 C8.46470873 90.85400518 7.67775943 100.75563678 7.75 111.375 C7.74226562 112.50421875 7.73453125 113.6334375 7.7265625 114.796875 C7.75230742 126.04740506 9.0095421 136.77342305 13.0625 147.3125 C13.36704102 148.11445801 13.67158203 148.91641602 13.98535156 149.74267578 C24.98231281 177.72137669 45.76457693 198.47271908 73.2578125 210.49609375 C94.56616582 219.33844903 122.20729609 220.78829152 144 213 C144.62084473 212.78569336 145.24168945 212.57138672 145.88134766 212.35058594 C171.68319448 203.33208237 193.65697879 185.66434366 206.02099609 160.95996094 C208.19157744 156.37488866 210.13120359 151.71527377 212 147 C212.50853516 145.73542969 212.50853516 145.73542969 213.02734375 144.4453125 C221.87632708 120.40777569 218.66102606 91.14072625 208.13256836 68.27099609 C195.46022561 41.92440624 174.28992362 22.99131947 147 13 C135.93609781 9.28307188 126.12356059 7.81856658 114.5 7.8125 C112.69402344 7.79413086 112.69402344 7.79413086 110.8515625 7.77539062 C99.78543931 7.75754204 89.05457321 8.75619651 78.625 12.625 Z " fill="#FDFDFE" transform="translate(0,0)"/>
<path d="M0 0 C1.98254143 -0.0165428 3.96502362 -0.0438107 5.94726562 -0.08203125 C8.80890781 -0.13691598 11.6691517 -0.15869282 14.53125 -0.17333984 C15.41270691 -0.19600922 16.29416382 -0.21867859 17.20233154 -0.24203491 C21.51888011 -0.22728327 24.3519857 -0.01299741 27.77832031 2.7578125 C33.28524589 8.5701918 31.53786711 17.49760594 31.58447266 25.11572266 C31.60101546 27.09826408 31.62828335 29.08074628 31.66650391 31.06298828 C31.72138864 33.92463046 31.74316547 36.78487436 31.7578125 39.64697266 C31.78048187 40.52842957 31.80315125 41.40988647 31.82650757 42.3180542 C31.81175593 46.63460276 31.59747007 49.46770836 28.82666016 52.89404297 C23.01428086 58.40096854 14.08686671 56.65358977 6.46875 56.70019531 C4.48620857 56.71673812 2.50372638 56.74400601 0.52148438 56.78222656 C-2.34015781 56.83711129 -5.2004017 56.85888813 -8.0625 56.87353516 C-8.94395691 56.89620453 -9.82541382 56.9188739 -10.73358154 56.94223022 C-15.05013011 56.92747859 -17.8832357 56.71319272 -21.30957031 53.94238281 C-26.81649589 48.13000351 -25.06911711 39.20258937 -25.11572266 31.58447266 C-25.13226546 29.60193123 -25.15953335 27.61944903 -25.19775391 25.63720703 C-25.25263864 22.77556485 -25.27441547 19.91532095 -25.2890625 17.05322266 C-25.31173187 16.17176575 -25.33440125 15.29030884 -25.35775757 14.38214111 C-25.34300593 10.06559255 -25.12872007 7.23248695 -22.35791016 3.80615234 C-16.54553086 -1.70077323 -7.61811671 0.04660554 0 0 Z " fill="#023C5A" transform="translate(88.765625,70.64990234375)"/>
<path d="M0 0 C1.98254143 -0.0165428 3.96502362 -0.0438107 5.94726562 -0.08203125 C8.80890781 -0.13691598 11.6691517 -0.15869282 14.53125 -0.17333984 C15.41270691 -0.19600922 16.29416382 -0.21867859 17.20233154 -0.24203491 C21.51888011 -0.22728327 24.3519857 -0.01299741 27.77832031 2.7578125 C33.28524589 8.5701918 31.53786711 17.49760594 31.58447266 25.11572266 C31.60101546 27.09826408 31.62828335 29.08074628 31.66650391 31.06298828 C31.72138864 33.92463046 31.74316547 36.78487436 31.7578125 39.64697266 C31.78048187 40.52842957 31.80315125 41.40988647 31.82650757 42.3180542 C31.81175593 46.63460276 31.59747007 49.46770836 28.82666016 52.89404297 C23.01428086 58.40096854 14.08686671 56.65358977 6.46875 56.70019531 C4.48620857 56.71673812 2.50372638 56.74400601 0.52148438 56.78222656 C-2.34015781 56.83711129 -5.2004017 56.85888813 -8.0625 56.87353516 C-8.94395691 56.89620453 -9.82541382 56.9188739 -10.73358154 56.94223022 C-15.05013011 56.92747859 -17.8832357 56.71319272 -21.30957031 53.94238281 C-26.81649589 48.13000351 -25.06911711 39.20258937 -25.11572266 31.58447266 C-25.13226546 29.60193123 -25.15953335 27.61944903 -25.19775391 25.63720703 C-25.25263864 22.77556485 -25.27441547 19.91532095 -25.2890625 17.05322266 C-25.31173187 16.17176575 -25.33440125 15.29030884 -25.35775757 14.38214111 C-25.34300593 10.06559255 -25.12872007 7.23248695 -22.35791016 3.80615234 C-16.54553086 -1.70077323 -7.61811671 0.04660554 0 0 Z M-18.49015808 6.61982727 C-20.04665354 8.73133479 -20.14022928 9.81903997 -20.13793945 12.42260742 C-20.14416824 13.23677628 -20.15039703 14.05094513 -20.15681458 14.88978577 C-20.14760483 15.76485275 -20.13839508 16.63991974 -20.12890625 17.54150391 C-20.12940475 18.44255356 -20.12990326 19.34360321 -20.13041687 20.2719574 C-20.12807698 22.1758749 -20.11835345 24.07979554 -20.10180664 25.98364258 C-20.07818722 28.90490221 -20.08124956 31.82525103 -20.08789062 34.74658203 C-20.08231482 36.59489479 -20.07520556 38.44320369 -20.06640625 40.29150391 C-20.06731766 41.16859512 -20.06822906 42.04568634 -20.06916809 42.94935608 C-20.236679 47.63210819 -20.236679 47.63210819 -17.765625 51.35009766 C-15.88263377 51.65470794 -15.88263377 51.65470794 -13.71484375 51.60888672 C-12.46344604 51.6183432 -12.46344604 51.6183432 -11.18676758 51.62799072 C-10.28466553 51.62394226 -9.38256348 51.6198938 -8.453125 51.61572266 C-7.52846436 51.61763611 -6.60380371 51.61954956 -5.65112305 51.621521 C-3.69417041 51.62288332 -1.73720876 51.61918362 0.21972656 51.61083984 C3.2222109 51.600141 6.22409687 51.61073356 9.2265625 51.62353516 C11.12500133 51.62221357 13.02343978 51.61965119 14.921875 51.61572266 C15.82397705 51.61977112 16.7260791 51.62381958 17.65551758 51.62799072 C18.48978271 51.6216864 19.32404785 51.61538208 20.18359375 51.60888672 C20.91924561 51.60729553 21.65489746 51.60570435 22.4128418 51.60406494 C24.48451714 51.50174796 24.48451714 51.50174796 26.234375 49.35009766 C26.44682694 46.30004319 26.53832729 43.34315138 26.53515625 40.29150391 C26.54158394 38.94136452 26.54158394 38.94136452 26.54814148 37.56394958 C26.5538903 35.6582829 26.55438099 33.75259426 26.55004883 31.84692383 C26.54689131 28.92767956 26.57033234 26.00945072 26.59570312 23.09033203 C26.59797627 21.24072394 26.59867954 19.39111311 26.59765625 17.54150391 C26.606866 16.66643692 26.61607574 15.79136993 26.62556458 14.88978577 C26.61622139 13.66853249 26.61622139 13.66853249 26.60668945 12.42260742 C26.60731888 11.70694107 26.6079483 10.99127472 26.6085968 10.25392151 C26.11344259 7.73486357 25.28793673 6.86208265 23.234375 5.35009766 C20.18574975 5.05161772 17.34577405 4.92987921 14.296875 4.95166016 C12.9821521 4.94735489 12.9821521 4.94735489 11.64086914 4.94296265 C9.78824212 4.94092167 7.93559358 4.94645388 6.08300781 4.95898438 C3.24495321 4.97503782 0.40832273 4.95913711 -2.4296875 4.93994141 C-4.22916981 4.94192383 -6.02865124 4.9457675 -7.828125 4.95166016 C-9.10320923 4.94255112 -9.10320923 4.94255112 -10.40405273 4.93325806 C-14.70736458 4.8642651 -14.70736458 4.8642651 -18.49015808 6.61982727 Z " fill="#EDEFF1" transform="translate(88.765625,70.64990234375)"/>
<path d="M0 0 C11.94260232 6.09709065 20.79362231 14.76755054 25.15234375 27.609375 C26.11421672 31.44421066 26.28672176 35.03623279 26.27734375 38.984375 C26.28121094 40.60472656 26.28121094 40.60472656 26.28515625 42.2578125 C26.15234375 45.609375 26.15234375 45.609375 25.33203125 49.08203125 C25.08122716 54.00542462 27.08346538 56.02556294 30.15234375 59.671875 C35.16335963 65.66531374 35.16335963 65.66531374 35.11328125 69.95703125 C34.15234375 72.609375 34.15234375 72.609375 31.77734375 73.984375 C29.15234375 74.609375 29.15234375 74.609375 26.15234375 74.609375 C26.25933594 75.27324219 26.36632812 75.93710938 26.4765625 76.62109375 C27.24197963 82.25884355 27.26344565 84.75605604 24.15234375 89.609375 C24.09737465 91.74106864 24.09737465 91.74106864 24.27734375 94.046875 C24.38408554 97.4176683 24.14576758 99.33225713 22.08984375 102.046875 C18.03770163 105.58172238 14.53878666 106.20008189 9.328125 107.09375 C8.34199219 107.26390625 7.35585937 107.4340625 6.33984375 107.609375 C4.93798828 107.8259375 4.93798828 107.8259375 3.5078125 108.046875 C0.97923232 108.43347005 0.97923232 108.43347005 -0.84765625 110.609375 C-1.31252343 113.73133836 -1.31252343 113.73133836 -1.47265625 117.234375 C-1.54742187 118.42289062 -1.6221875 119.61140625 -1.69921875 120.8359375 C-1.74820313 121.75117188 -1.7971875 122.66640625 -1.84765625 123.609375 C-3.16765625 123.609375 -4.48765625 123.609375 -5.84765625 123.609375 C-8.17118566 111.99172794 -8.17118566 111.99172794 -5.28515625 106.796875 C0.23030636 101.84710086 5.52916822 101.24843197 12.69921875 100.91796875 C15.40570159 100.76295092 15.40570159 100.76295092 18.15234375 98.609375 C18.36574129 96.09750812 18.14724767 93.7266977 17.96484375 91.21484375 C18.15234375 88.609375 18.15234375 88.609375 19.62109375 86.171875 C21.92251154 82.32052278 21.61598881 78.65036895 21.74609375 74.25390625 C21.88015625 73.38121094 22.01421875 72.50851563 22.15234375 71.609375 C25.3802593 69.4574313 26.43635184 69.40851057 30.15234375 69.609375 C29.77722656 69.0525 29.40210938 68.495625 29.015625 67.921875 C27.94496608 66.32532567 26.88021956 64.72480111 25.8203125 63.12109375 C24.77701909 61.55004536 23.71931521 59.98836508 22.640625 58.44140625 C19.89501954 54.37413398 18.42595071 51.69412626 19.15234375 46.609375 C19.64734375 45.619375 19.64734375 45.619375 20.15234375 44.609375 C21.02471104 34.00675713 19.67985713 24.77239248 12.8046875 16.41796875 C6.09651561 9.07545436 -3.07807031 2.9659539 -13.32128906 2.49584961 C-14.6723877 2.50370483 -14.6723877 2.50370483 -16.05078125 2.51171875 C-17.03046875 2.51494141 -18.01015625 2.51816406 -19.01953125 2.52148438 C-20.0353125 2.52986328 -21.05109375 2.53824219 -22.09765625 2.546875 C-23.12890625 2.55138672 -24.16015625 2.55589844 -25.22265625 2.56054688 C-27.76438198 2.57231412 -30.30598944 2.58875489 -32.84765625 2.609375 C-32.84765625 0.959375 -32.84765625 -0.690625 -32.84765625 -2.390625 C-22.63444816 -5.7950277 -9.75381341 -4.05175913 0 0 Z " fill="#F0F2F4" transform="translate(137.84765625,51.390625)"/>
<path d="M0 0 C1.4540625 0.0309375 1.4540625 0.0309375 2.9375 0.0625 C12.9375 18.91356383 12.9375 18.91356383 12.9375 26.0625 C11.6175 26.3925 10.2975 26.7225 8.9375 27.0625 C7.9475 25.0825 6.9575 23.1025 5.9375 21.0625 C1.9775 21.0625 -1.9825 21.0625 -6.0625 21.0625 C-6.7225 23.0425 -7.3825 25.0225 -8.0625 27.0625 C-9.7125 26.7325 -11.3625 26.4025 -13.0625 26.0625 C-11.4047142 19.88215819 -9.3106251 13.93564971 -6.9375 8 C-6.67179199 7.33282959 -6.40608398 6.66565918 -6.13232422 5.97827148 C-3.74103406 0.07634763 -3.74103406 0.07634763 0 0 Z " fill="#F4F5F7" transform="translate(87.0625,84.9375)"/>
<path d="M0 0 C1.65 0 3.3 0 5 0 C5 7.92 5 15.84 5 24 C3.35 24 1.7 24 0 24 C0 16.08 0 8.16 0 0 Z " fill="#E5E9EC" transform="translate(102,87)"/>
<path d="M0 0 C2.44839588 3.67259383 4 6.54648201 4 11 C1.36 11 -1.28 11 -4 11 C-3.5247412 9.35303396 -3.04468109 7.70745272 -2.5625 6.0625 C-2.29566406 5.14597656 -2.02882813 4.22945313 -1.75390625 3.28515625 C-1 1 -1 1 0 0 Z " fill="#1A4864" transform="translate(87,90)"/>
<path d="M0 0 C1.98 0 3.96 0 6 0 C6 1.32 6 2.64 6 4 C4.02 4 2.04 4 0 4 C0 2.68 0 1.36 0 0 Z " fill="#ADBAC3" transform="translate(124,113)"/>
<path d="M0 0 C1.65 0 3.3 0 5 0 C5 1.32 5 2.64 5 4 C3.35 4 1.7 4 0 4 C0 2.68 0 1.36 0 0 Z " fill="#C0CAD0" transform="translate(54,113)"/>
<path d="M0 0 C1.65 0 3.3 0 5 0 C5 1.32 5 2.64 5 4 C3.35 4 1.7 4 0 4 C0 2.68 0 1.36 0 0 Z " fill="#BEC8CF" transform="translate(54,92)"/>
</svg>
